<svg width="22" height="26" viewBox="0 0 22 26" fill="none" xmlns="http://www.w3.org/2000/svg">
<path d="M14.5714 22.2857C13.6191 23.7143 12.4286 24.4286 11 24.4286C9.57143 24.4286 8.38096 23.7143 7.42858 22.2857M18.2636 20.1429H3.7364C2.43402 20.1429 1.37824 19.0871 1.37824 17.7847C1.37824 17.3573 1.4944 16.9379 1.71429 16.5714C3.11647 14.2345 3.85715 11.5604 3.85715 8.83505V7.28573C3.85715 4.12982 6.41552 1.57145 9.57143 1.57145H12.4286C15.5845 1.57145 18.1429 4.12982 18.1429 7.28573V8.83505C18.1429 11.5604 18.8835 14.2345 20.2857 16.5714C20.9558 17.6882 20.5937 19.1368 19.4769 19.8068C19.1104 20.0267 18.691 20.1429 18.2636 20.1429V20.1429Z" stroke="#9CA3AF" stroke-width="1.5" stroke-linecap="round" stroke-linejoin="round"/>
</svg>
