<svg width="30" height="30" viewBox="0 0 30 30" fill="none" xmlns="http://www.w3.org/2000/svg">
<path fill-rule="evenodd" clip-rule="evenodd" d="M14.9988 9C15.9994 9 17 8 17 7C17 6 15.9994 5 14.9988 5C13.9983 5 13 6 13 7C13 8 13.9983 9 14.9988 9ZM14.9988 17C15.9994 17 17 16 17 15C17 14 15.9994 13 14.9988 13C13.9983 13 13 14 13 15C13 16 13.9983 17 14.9988 17ZM14.9988 25C15.9994 25 17 24 17 23C17 22 15.9994 21 14.9988 21C13.9983 21 13 22 13 23C13 24 13.9983 25 14.9988 25Z" fill="#9CA3AF"/>
</svg>
