<svg width="23" height="23" viewBox="0 0 23 23" fill="none" xmlns="http://www.w3.org/2000/svg">
<path fill-rule="evenodd" clip-rule="evenodd" d="M0 8.43728C0.220742 7.51793 0.551311 6.64183 0.976914 5.82391C2.1893 7.03378 4.1447 7.02984 5.35224 5.81208C6.56371 4.59037 6.56371 2.60959 5.35224 1.38787C5.31679 1.35212 5.28069 1.31742 5.24399 1.28376C6.08508 0.778646 6.99625 0.379845 7.95929 0.105733C7.95533 0.170424 7.95332 0.235647 7.95332 0.301342C7.95332 2.0291 9.34221 3.42973 11.0555 3.42973C12.7688 3.42973 14.1576 2.0291 14.1576 0.301342C14.1576 0.23564 14.1556 0.17041 14.1517 0.105713C15.1147 0.379821 16.0259 0.778624 16.867 1.28374C16.8303 1.31742 16.7942 1.35215 16.7587 1.38793C15.5472 2.60964 15.5472 4.59043 16.7587 5.81214C17.9663 7.02992 19.9217 7.03383 21.1341 5.82387C21.5597 6.6418 21.8903 7.51791 22.111 8.43728C20.4498 8.49687 19.1211 9.87379 19.1211 11.5637C19.1211 13.1752 20.3295 14.5021 21.8823 14.6734C21.6163 15.5044 21.2588 16.2941 20.8218 17.0302C19.6062 16.1022 17.8673 16.1972 16.7588 17.3151C15.6886 18.3943 15.5638 20.0658 16.3842 21.2831C15.6641 21.6689 14.8979 21.979 14.0961 22.2027C13.8097 20.7734 12.5572 19.6973 11.0555 19.6973C9.55374 19.6973 8.30123 20.7734 8.01484 22.2027C7.21309 21.979 6.4469 21.6689 5.72672 21.2831C6.54725 20.0657 6.42244 18.3941 5.35227 17.3149C4.24369 16.197 2.50483 16.102 1.28919 17.0301C0.852205 16.294 0.494726 15.5044 0.228721 14.6733C1.78153 14.5021 2.98983 13.1752 2.98983 11.5637C2.98983 9.87382 1.66124 8.49691 0 8.43728ZM11.0555 17.4776C14.2537 17.4776 16.8465 14.8849 16.8465 11.6867C16.8465 8.4884 14.2537 5.8957 11.0555 5.8957C7.85722 5.8957 5.26452 8.4884 5.26452 11.6867C5.26452 14.8849 7.85722 17.4776 11.0555 17.4776Z" fill="#191849"/>
</svg>
